<svg width="430" height="577" viewBox="0 0 430 577" fill="none" xmlns="http://www.w3.org/2000/svg">
<path d="M406.257 311.036L386.447 320.286L369.647 311.246L364.933 312.063V314.82C365.167 314.82 369.133 317.647 379.493 324.024L379.353 324.094L362.997 334.115V336.872L367.663 340.423C367.663 340.423 371.467 337.269 386.703 328.439C397.927 335.33 404.53 339.418 404.53 339.418L409.103 335.914V333.158L393.237 324.655C405.16 317.74 410.69 313.862 410.853 313.862C410.993 313.862 411.577 311.55 410.853 311.082C409.477 310.265 406.257 311.036 406.257 311.036Z" fill="url(#paint0_linear_1_863)"/>
<path d="M406.257 308.279L386.447 317.53L369.647 308.489L364.933 312.063C365.167 312.063 369.133 314.89 379.493 321.244L379.353 321.337L362.997 334.115L367.663 337.666C367.663 337.666 371.467 334.512 386.703 325.682C397.927 332.574 404.53 336.662 404.53 336.662L409.103 333.158L393.237 321.875C405.16 314.983 410.69 311.082 410.853 311.082C411.227 311.082 406.257 308.279 406.257 308.279Z" fill="url(#paint1_linear_1_863)"/>
<path d="M383.227 290.105V319.328C383.227 319.328 383.787 321.384 385.933 321.267C388.103 321.151 389.2 319.328 389.2 319.328V286.578L383.227 290.105Z" fill="url(#paint2_linear_1_863)"/>
<path d="M379.82 283.915V299.122C379.82 299.122 381.523 301.995 386.027 302.159C390.507 302.322 392.28 297.977 392.28 297.977V276.486L379.82 283.915Z" fill="url(#paint3_linear_1_863)"/>
<path d="M324.38 258.686V264.059C324.38 265.25 325.033 266.325 326.06 266.885L365.353 287.676V278.939L324.38 258.686Z" fill="#83A7A5"/>
<path d="M369.763 283.775L325.547 260.952C324.077 260.181 323.96 258.102 325.36 257.214L356.953 236.751L369.763 283.775Z" fill="url(#paint4_linear_1_863)"/>
<path d="M320.46 242.591L361.2 220.936L366.217 223.996L325.71 245.628L320.46 242.591Z" fill="url(#paint5_linear_1_863)"/>
<path d="M320.46 242.591V247.94L325.71 251V245.628L320.46 242.591Z" fill="#556262"/>
<path d="M366.217 223.996V229.346L325.71 251V245.628L366.217 223.996Z" fill="url(#paint6_linear_1_863)"/>
<path d="M318.127 266.138V252.589C318.127 251.608 318.64 250.697 319.503 250.23L322.49 248.805V246.796L317.613 249.365C316.727 249.832 316.19 250.743 316.19 251.725V266.932C316.19 269.081 318.477 270.459 320.367 269.455L326.457 266.231V264.503L320.367 267.539C319.34 268.053 318.127 267.282 318.127 266.138Z" fill="url(#paint7_linear_1_863)"/>
<path d="M406.583 200.309L419.65 207.598C421.493 208.602 422.613 210.541 422.613 212.643V259.48C422.613 261.863 421.353 264.059 419.3 265.227L375.48 290.642C374.033 291.483 372.26 291.483 370.813 290.642L326.807 266.768L342.86 255.345L382.433 187.952L406.583 200.309Z" fill="url(#paint8_linear_1_863)"/>
<path d="M401.38 203.72L414.47 210.985C416.29 212.013 417.433 213.952 417.433 216.031V255.065C417.433 257.448 416.173 259.62 414.12 260.812L374.43 283.798C372.983 284.616 371.21 284.616 369.763 283.775L331.193 261.956L366.193 226.075L387.683 189.096L401.38 203.72Z" fill="url(#paint9_linear_1_863)"/>
<path d="M348.693 274.01C348.693 274.01 338.777 284.569 335.58 287.512C332.407 290.479 323.307 334.442 323.307 334.442C323.307 334.442 323.307 336.007 323.727 338.624C323.913 339.885 324.217 341.404 324.66 343.109C326.037 348.342 324.66 353.364 324.66 353.364L321.463 357.826V348.856C321.463 348.856 320.787 354.719 315.607 360.886C310.427 367.03 301.677 366.562 299.647 364.974C297.593 363.385 304.197 359.508 306.017 357.826C306.188 357.654 306.374 357.436 306.577 357.172C308.653 354.555 312.503 347.01 313.74 340.609C315.093 333.531 317.147 293.002 317.147 284.686C317.147 276.393 321.463 273.449 321.463 273.449L348.693 274.01Z" fill="url(#paint10_linear_1_863)"/>
<path d="M346.033 274.524C346.033 274.524 338.497 276.977 337.47 287.746C336.467 298.515 338.403 347.991 332.803 353.224C327.227 358.48 319.153 365.768 320.483 366.259C321.79 366.749 333.013 365.348 336.583 362.615C340.177 359.881 341.273 356.401 341.273 356.401L344.703 356.354C344.703 356.354 341.647 348.435 345.917 338.671C350.21 328.906 355.577 310.989 353.99 303.771C352.403 296.529 350.98 293.422 356.487 290.759C361.97 288.096 350.28 273.449 350.28 273.449L346.033 274.524Z" fill="url(#paint11_linear_1_863)"/>
<path d="M394.403 241.867C394.403 241.867 399.023 263.451 393.4 269.408C387.777 275.388 353.99 303.771 353.99 303.771C353.99 303.771 339.127 309.05 323.983 301.575C307.253 293.352 312.27 279.126 312.27 279.126C312.27 279.126 340.667 252.566 347.667 246.165C354.643 239.764 356.3 233.107 356.3 233.107L394.403 241.867Z" fill="#03446D"/>
<path d="M367.547 173.001C367.547 173.001 359.17 171.249 356.3 174.216C353.407 177.206 350.653 195.544 349.487 198.557C348.32 201.547 346.92 205.425 346.92 205.425C346.92 205.425 348.693 206.149 351.447 208.368C354.2 210.588 354.06 213.484 354.06 213.484L355.647 210.728C355.647 210.728 356.02 229.065 355.25 231.028C354.457 232.99 353.943 245.16 370.16 246.071C386.377 247.006 394.403 241.867 394.403 241.867L391.743 218.834C391.743 218.834 393.82 219.768 397.74 218.063C401.683 216.358 403.387 215.306 403.387 215.306C403.387 215.306 402.523 194.516 398.137 190.685C393.75 186.854 377.837 172.487 377.837 172.487L367.547 173.001Z" fill="url(#paint12_linear_1_863)"/>
<path d="M367.92 171.133C367.92 171.133 367.967 178.257 371.21 179.893C376.39 182.532 383.157 178.631 383.67 178.491C384.183 178.327 384.44 169.24 384.44 169.24L367.92 171.133Z" fill="url(#paint13_linear_1_863)"/>
<path d="M386.353 147.305C386.353 147.305 388.827 143.965 394.403 146.394C399.98 148.8 399.607 159.102 393.143 169.988C386.703 180.874 393.633 188.396 393.633 188.396C393.633 188.396 383.227 185.779 381.99 180.196C380.73 174.613 384.673 166.951 384.673 166.951C384.673 166.951 387.077 156.603 386.213 155.154C385.35 153.706 386.353 147.305 386.353 147.305Z" fill="url(#paint14_linear_1_863)"/>
<path d="M363.183 159.593C363.183 159.593 362.133 166.274 363.603 170.572C365.097 174.87 365.727 176.482 368.387 176.482C371.07 176.482 380.777 174.31 383.88 170.782C386.96 167.255 388.57 157.958 385.28 156.556C381.967 155.154 363.183 159.593 363.183 159.593Z" fill="url(#paint15_linear_1_863)"/>
<path d="M360.733 153.776C360.407 158.635 364.023 162.84 368.643 164.755C373.287 166.671 379.96 166.788 379.96 166.788C379.96 166.788 380.077 161.135 382.55 161.135C385.047 161.135 383.017 166.577 381.99 168.843C380.987 171.086 380.637 173.352 382.34 173.469C384.02 173.585 389.457 167.138 390.81 161.368C392.163 155.598 387.987 149.361 387.987 149.361C387.987 149.361 382.667 140.297 371.7 143.474C360.733 146.651 360.733 153.776 360.733 153.776Z" fill="url(#paint16_linear_1_863)"/>
<path d="M339.103 341.077C339.103 341.077 335.207 342.151 334.577 347.851C333.923 353.551 330.703 357.288 329.607 358.363C328.51 359.438 325.407 357.569 326.853 355.116C326.853 355.116 323.19 364.273 321.253 365.067C319.34 365.862 320.623 367.146 323.19 367.146C325.757 367.146 334.11 364.016 336.583 361.26C339.057 358.503 340.34 349.51 340.34 349.51C340.34 349.51 343.28 351.659 343.933 354.112C344.563 356.588 343.933 360.722 343.933 360.722L346.407 360.442C346.407 360.442 347.69 353.271 346.407 349.79C345.123 346.286 339.103 341.077 339.103 341.077Z" fill="#03446D"/>
<path d="M362.483 261.279L383.81 248.01C385.047 247.239 385.42 244.203 384.183 243.479L361.62 231.822L361.317 260.625C361.293 261.232 361.97 261.606 362.483 261.279Z" fill="url(#paint17_linear_1_863)"/>
<path d="M324.66 353.364L321.463 357.826V348.856C321.463 348.856 320.787 354.719 315.607 360.886C310.427 367.03 301.677 366.562 299.647 364.974C297.593 363.385 304.197 359.508 306.017 357.826C306.188 357.654 306.374 357.436 306.577 357.172C307.533 357.615 308.677 357.849 310.007 357.475C313.46 356.564 315.163 353.784 316.89 347.033C318.617 340.282 323.727 338.624 323.727 338.624C323.913 339.885 324.217 341.404 324.66 343.109C326.037 348.342 324.66 353.364 324.66 353.364Z" fill="#03446D"/>
<path d="M361.293 260.461L383.81 246.445C385.047 245.674 385.023 243.876 383.763 243.151L361.62 230.257L361.293 260.461Z" fill="url(#paint18_linear_1_863)"/>
<path d="M325.197 241.213L358.913 261.372C359.753 261.863 361.62 260.601 361.62 259.62V226.636C361.62 225.748 361.13 224.907 360.36 224.463L325.43 204.724C324.683 204.304 322.513 204.678 322.513 205.519L323.773 238.783C323.773 239.788 324.31 240.722 325.197 241.213Z" fill="url(#paint19_linear_1_863)"/>
<path d="M323.703 241.586L358.213 261.115C359.077 261.583 360.127 260.975 360.127 259.994V227.01C360.127 226.122 359.637 225.281 358.867 224.837L323.937 205.098C323.19 204.678 322.28 205.215 322.28 206.079V239.157C322.28 240.161 322.817 241.096 323.703 241.586Z" fill="url(#paint20_linear_1_863)"/>
<path d="M402.36 215.89C402.36 215.89 403.9 226.286 401.45 228.108C399.023 229.93 380.31 238.923 378.467 241.376C376.647 243.806 374.22 240.442 371.023 242.287C367.827 244.109 367.057 246.866 364.467 246.165C361.877 245.487 367.57 235.536 370.44 236.144C373.333 236.774 376.11 236.027 377.837 234.648C379.54 233.294 391.79 222.011 391.79 222.011L391.743 218.834C391.743 218.834 397.46 218.74 402.36 215.89Z" fill="url(#paint21_linear_1_863)"/>
<path d="M347.76 205.869L342.86 214.559L348.927 217.993L353.85 211.943C353.85 211.943 352.427 206.897 347.76 205.869Z" fill="url(#paint22_linear_1_863)"/>
<path opacity="0.2" d="M358.12 182.322C358.12 182.322 358.377 185.546 356.533 188.045C354.713 190.521 351.843 193.208 353.15 196.992C354.433 200.776 355.647 210.728 355.647 210.728L354.06 213.484L353.243 210.494C353.243 210.494 354.713 210.074 353.85 205.869C352.963 201.687 350.56 195.684 351.937 192.647C353.313 189.61 358.12 186.55 358.12 182.322Z" fill="#03446D"/>
<path opacity="0.2" d="M391.743 218.834C391.743 218.834 389.69 201.687 389.387 198.534C389.06 195.38 390.553 192.016 390.553 192.016C390.553 192.016 387.45 195.077 387.847 203.626C388.267 212.176 388.71 224.837 388.71 224.837L391.79 222.011L391.743 218.834Z" fill="#03446D"/>
<path d="M372.587 265.203L413.303 243.572L418.343 246.609L377.837 268.263L372.587 265.203Z" fill="url(#paint23_linear_1_863)"/>
<path d="M372.587 265.203V270.576L377.837 273.613V268.263L372.587 265.203Z" fill="#556262"/>
<path d="M418.343 246.609V251.982L377.837 273.613V268.263L418.343 246.609Z" fill="url(#paint24_linear_1_863)"/>
<path d="M370.23 288.75V275.201C370.23 274.22 370.767 273.333 371.63 272.865L374.593 271.417V269.408L369.717 271.978C368.853 272.445 368.293 273.356 368.293 274.36V289.544C368.293 291.694 370.58 293.072 372.47 292.067L378.56 288.844V287.138L372.47 290.152C371.443 290.666 370.23 289.918 370.23 288.75Z" fill="url(#paint25_linear_1_863)"/>
<g opacity="0.2">
<path d="M195.79 473.084L97.2066 416.179C92.4232 413.423 92.4933 406.508 97.2999 403.822L203.653 344.697C209.183 341.614 215.903 341.684 221.363 344.838L318.337 400.808C323.143 403.565 323.073 410.526 318.243 413.212L210.35 473.201C205.8 475.724 200.293 475.677 195.79 473.084Z" fill="#031614"/>
</g>
<path d="M195.79 459.348L97.2066 402.443C92.4233 399.664 90.4866 385.577 95.3166 382.914L203.653 330.938C209.183 327.878 215.903 327.925 221.363 331.079L320.273 379.901C325.08 382.657 323.073 396.79 318.243 399.477L210.35 459.465C205.8 461.988 200.293 461.941 195.79 459.348Z" fill="url(#paint26_linear_1_863)"/>
<path d="M195.79 450.542L97.2066 393.613C92.4232 390.857 92.4933 383.942 97.2999 381.256L203.653 322.132C209.183 319.072 215.903 319.118 221.363 322.272L318.337 378.242C323.143 381.022 323.073 387.96 318.243 390.67L210.35 450.658C205.8 453.158 200.293 453.135 195.79 450.542Z" fill="url(#paint27_linear_1_863)"/>
<path opacity="0.3" d="M333.177 484.157C333.177 495.533 318.547 504.76 300.487 504.76C282.427 504.76 267.773 495.533 267.773 484.157C267.773 472.78 282.427 463.553 300.487 463.553C318.547 463.553 333.177 472.78 333.177 484.157Z" fill="#202121"/>
<path d="M329.257 458.951C323.703 452.527 312.9 448.159 300.487 448.159C288.05 448.159 277.247 452.527 271.717 458.951H267.773V469.533H267.797C268.427 480.559 282.823 489.366 300.487 489.366C318.15 489.366 332.523 480.559 333.153 469.533H333.177V458.951H329.257Z" fill="url(#paint28_linear_1_863)"/>
<path d="M333.177 460.049C333.177 471.425 318.547 480.653 300.487 480.653C282.427 480.653 267.773 471.425 267.773 460.049C267.773 448.673 282.427 439.446 300.487 439.446C318.547 439.446 333.177 448.673 333.177 460.049Z" fill="url(#paint29_linear_1_863)"/>
<path d="M314.253 461.591C313.6 461.124 312.737 461.124 312.06 461.544C309.377 463.273 306.367 464.885 305.387 464.931C303.59 464.978 291.83 456.545 291.9 454.489C291.923 453.135 296.123 450.892 298.807 449.701C299.483 449.397 299.6 448.509 299.017 448.042L295.353 445.005C294.77 444.491 293.93 444.398 293.23 444.725C290.5 446.056 283.897 449.631 283.57 453.882C282.987 461.1 293.86 470.304 303.753 471.098C311.01 471.659 316.237 468.412 318.5 466.637C319.177 466.123 319.153 465.095 318.453 464.581L314.253 461.591Z" fill="#FEFEFE"/>
<path d="M218.703 96.4507L262.197 67.4843C263.69 66.5966 264.6 65.0082 264.6 63.2795L267.493 30.1083C267.493 27.8658 262.173 26.2306 260.237 27.3752L216.883 53.1179C214.387 54.613 212.847 57.2994 212.847 60.196V92.4562C212.847 94.3717 217.07 97.4318 218.703 96.4507Z" fill="url(#paint30_linear_1_863)"/>
<path d="M263.877 28.9403L220.523 54.683C218.003 56.1547 216.487 58.8411 216.487 61.7611V94.0213C216.487 95.9134 218.563 97.1048 220.197 96.1237L252.7 76.8283L259.187 92.6898L261.03 71.8994L265.837 69.0494C267.307 68.1618 268.217 66.5499 268.217 64.8213V31.4165C268.217 29.1739 265.79 27.7957 263.877 28.9403Z" fill="url(#paint31_linear_1_863)"/>
<path d="M259.187 92.6897L254.333 90.7509C253.657 90.4705 253.143 89.9333 252.887 89.2792L248.92 79.0709L252.7 76.8283L259.187 92.6897Z" fill="url(#paint32_linear_1_863)"/>
<path d="M226.893 61.7144L260.05 42.0219V38.6814L226.893 58.3505V61.7144Z" fill="url(#paint33_linear_1_863)"/>
<path d="M226.893 69.0027L260.05 49.3336V45.9698L226.893 65.6389V69.0027Z" fill="url(#paint34_linear_1_863)"/>
<path d="M226.893 76.291L260.05 56.6219V53.2581L226.893 72.9505V76.291Z" fill="url(#paint35_linear_1_863)"/>
<path d="M226.893 83.6027L245.397 72.3666V69.0027L226.893 80.2389V83.6027Z" fill="url(#paint36_linear_1_863)"/>
<path d="M54.81 191.573L98.3267 162.606C99.82 161.719 100.73 160.107 100.73 158.378L103.6 125.207C103.6 122.964 98.28 121.352 96.3667 122.497L53.0134 148.216C50.5167 149.712 48.9767 152.398 48.9767 155.318V187.578C48.9767 189.47 53.1767 192.554 54.81 191.573Z" fill="url(#paint37_linear_1_863)"/>
<path d="M99.9834 124.039L56.6301 149.782C54.1334 151.277 52.5934 153.963 52.5934 156.86V189.12C52.5934 191.035 54.6701 192.203 56.3034 191.246L88.8301 171.95L95.3167 187.788L97.1367 166.998L101.943 164.148C103.437 163.26 104.347 161.672 104.347 159.943V126.538C104.347 124.296 101.92 122.894 99.9834 124.039Z" fill="url(#paint38_linear_1_863)"/>
<path d="M95.3167 187.788L90.4634 185.849C89.7867 185.592 89.2501 185.055 88.9934 184.378L85.0267 174.193L88.8301 171.95L95.3167 187.788Z" fill="url(#paint39_linear_1_863)"/>
<path d="M63.0233 156.813L96.18 137.144V133.78L63.0233 153.472V156.813Z" fill="url(#paint40_linear_1_863)"/>
<path d="M63.0233 164.101L96.18 144.432V141.092L63.0233 160.761V164.101Z" fill="url(#paint41_linear_1_863)"/>
<path d="M63.0233 171.413L96.18 151.72V148.38L63.0233 168.049V171.413Z" fill="url(#paint42_linear_1_863)"/>
<path d="M63.0233 178.701L81.5266 167.465V164.101L63.0233 175.337V178.701Z" fill="url(#paint43_linear_1_863)"/>
<path opacity="0.3" fill-rule="evenodd" clip-rule="evenodd" d="M406.56 432.648C406.56 435.521 405.627 438.231 403.947 440.707C403.573 441.314 403.13 441.875 402.64 442.459L395.29 440.263C394.053 441.758 392.467 443.136 390.577 444.398L392.98 449.677C389.433 451.429 385.373 452.831 380.87 453.765L378.397 449.21C376.343 449.677 374.15 450.004 371.887 450.168C370.51 450.308 369.063 450.355 367.617 450.355C366.854 450.355 366.084 450.331 365.307 450.285V455.05C361.317 454.933 357.467 454.443 353.897 453.672V448.463C351.377 447.715 349.067 446.827 346.99 445.729L342.627 449.864C341.577 449.374 340.597 448.836 339.663 448.276C337.493 446.991 335.557 445.519 333.993 443.977L339.827 440.123C338.31 438.254 337.353 436.175 337.073 434.026L330.913 433.279L328.72 432.998C328.697 432.881 328.697 432.765 328.697 432.648C328.697 429.494 329.84 426.481 331.94 423.724L340.27 424.682C340.286 424.667 340.309 424.643 340.34 424.612C341.133 423.701 342.02 422.883 343.07 422.089L340.34 416.67C343.63 414.801 347.48 413.282 351.75 412.184L355.6 416.413C359.17 415.525 363.113 415.011 367.243 414.988L367.547 410.222H367.617C372.307 410.222 376.787 410.713 380.917 411.577L380.567 416.67C383.46 417.44 386.12 418.445 388.453 419.706L393.657 416.016C397.6 418.024 400.797 420.547 403.013 423.351L397.203 426.154L396.363 426.551C397.6 428.443 398.253 430.499 398.253 432.648H406.56ZM383.04 436.689C384.043 435.474 384.58 434.096 384.58 432.648C384.58 427.275 376.973 422.907 367.617 422.907H367.267C365.898 422.922 364.576 423.039 363.3 423.257C356.043 424.332 350.7 428.139 350.7 432.648C350.7 434.096 351.237 435.474 352.217 436.689C354.877 440.076 360.78 442.436 367.617 442.436C374.477 442.436 380.403 440.076 383.04 436.689Z" fill="#202121"/>
<path fill-rule="evenodd" clip-rule="evenodd" d="M403.947 424.822C403.573 425.406 403.13 425.99 402.64 426.574V434.61L395.29 432.438C394.637 433.255 393.843 434.026 392.98 434.727V433.792C389.433 435.544 385.373 436.946 380.87 437.88V445.94L378.397 441.361C375.037 442.109 371.397 442.506 367.617 442.506C366.847 442.506 366.077 442.482 365.307 442.459V447.224C361.317 447.084 357.467 446.594 353.897 445.846V440.614C351.377 439.913 349.067 438.978 346.99 437.88L342.627 442.015V433.979C341.577 433.489 340.597 432.952 339.663 432.391L339.827 432.274C339.71 432.134 339.593 431.994 339.5 431.83C338.17 430.078 337.33 428.186 337.073 426.177L336.91 426.154L339.827 424.238C338.31 422.346 337.353 420.29 337.073 418.141L330.913 417.394C331.217 416.88 331.567 416.366 331.94 415.899L340.27 416.833C341.087 415.945 341.997 415.058 343.07 414.24L340.503 409.148L340.34 408.821C340.737 408.587 341.133 408.377 341.553 408.143H341.577C344.587 406.601 348.017 405.293 351.75 404.336L355.6 408.564C358.003 407.956 360.593 407.536 363.277 407.349C364.583 407.209 364.98 405.831 366.31 405.831L367.243 407.022L367.547 402.373H367.617C372.307 402.373 376.787 402.864 380.917 403.728L380.567 408.821C383.46 409.592 386.12 410.596 388.453 411.857L393.657 408.167C394.901 408.821 396.083 409.514 397.203 410.246L396.363 410.643C397.6 412.558 398.253 414.614 398.253 416.763H400.377L396.363 418.702C397.6 420.594 398.253 422.65 398.253 424.822H403.947ZM384.58 424.822C384.58 423.374 384.043 422.042 383.04 420.804C380.403 417.417 374.5 415.081 367.64 415.081C360.757 415.081 354.853 417.417 352.217 420.804C351.237 422.042 350.7 423.374 350.7 424.822C350.7 429.775 356.557 431.9 364.817 432.554C365.563 432.601 366.31 432.624 367.103 432.624C368.597 432.624 370.02 432.531 371.397 432.321C378.677 431.223 384.58 429.354 384.58 424.822ZM328.743 424.238V425.149C328.72 425.056 328.72 424.939 328.72 424.822C328.72 424.635 328.72 424.425 328.743 424.238Z" fill="url(#paint44_linear_1_863)"/>
<path d="M339.827 424.238L336.91 426.154L328.72 425.149V417.113L330.913 417.394L337.073 418.141C337.353 420.29 338.31 422.346 339.827 424.238Z" fill="#004C86"/>
<path d="M342.627 433.979V442.015C339.197 440.357 336.257 438.371 333.993 436.128V428.069C335.557 429.634 337.493 431.083 339.663 432.391C340.597 432.952 341.577 433.489 342.627 433.979Z" fill="#004C86"/>
<path d="M342.627 433.979C341.577 433.489 340.597 432.952 339.663 432.391C337.493 431.083 335.557 429.634 333.993 428.069L339.5 431.83L342.627 433.979Z" fill="url(#paint45_linear_1_863)"/>
<path d="M392.98 433.792V441.828C389.433 443.58 385.373 445.005 380.87 445.94V437.88C385.373 436.946 389.433 435.544 392.98 433.792Z" fill="#004C86"/>
<path d="M392.98 433.792C389.433 435.544 385.373 436.946 380.87 437.88L392.98 433.792Z" fill="url(#paint46_linear_1_863)"/>
<path d="M406.56 416.763V424.822C406.56 428.326 405.137 431.667 402.64 434.61V426.574C403.13 425.99 403.573 425.406 403.947 424.822C405.627 422.323 406.56 419.613 406.56 416.763Z" fill="#004C86"/>
<path d="M406.56 416.763C406.56 419.613 405.627 422.323 403.947 424.822C403.573 425.406 403.13 425.99 402.64 426.574L403.34 424.822L406.56 416.763Z" fill="url(#paint47_linear_1_863)"/>
<path d="M403.013 407.442V415.502L400.377 416.763H398.253C398.253 414.614 397.6 412.558 396.363 410.643L397.203 410.246L403.013 407.442Z" fill="#004C86"/>
<path d="M343.07 406.204C342.02 406.999 341.133 407.816 340.34 408.727V400.785L343.07 406.204Z" fill="#004C86"/>
<path d="M345.66 404.336L341.577 408.143H341.553L340.503 409.148L340.34 409.311V408.727C341.133 407.816 342.02 406.999 343.07 406.204L340.34 400.785L345.66 404.336Z" fill="url(#paint48_linear_1_863)"/>
<path fill-rule="evenodd" clip-rule="evenodd" d="M406.56 416.763C406.56 419.613 405.627 422.323 403.947 424.822C403.573 425.406 403.13 425.99 402.64 426.574L395.29 424.378C394.053 425.873 392.467 427.252 390.577 428.49L392.98 433.792C389.433 435.544 385.373 436.946 380.87 437.88L378.397 433.325C376.343 433.792 374.15 434.096 371.887 434.26C370.51 434.4 369.063 434.447 367.617 434.447C366.854 434.447 366.084 434.423 365.307 434.376V439.165C361.317 439.048 357.467 438.558 353.897 437.787V432.578C351.377 431.83 349.067 430.943 346.99 429.845L342.627 433.979C341.577 433.489 340.597 432.952 339.663 432.391C337.493 431.083 335.557 429.634 333.993 428.069L339.827 424.238C338.31 422.346 337.353 420.29 337.073 418.141L330.913 417.394L328.72 417.113C328.697 416.997 328.697 416.88 328.697 416.763C328.697 413.586 329.84 410.573 331.94 407.84L340.27 408.797C340.286 408.766 340.309 408.743 340.34 408.727C341.133 407.816 342.02 406.999 343.07 406.204L340.34 400.785C343.63 398.916 347.48 397.398 351.75 396.3L355.6 400.528C359.17 399.64 363.113 399.126 367.243 399.103L367.547 394.337H367.617C372.307 394.337 376.787 394.828 380.917 395.669L380.567 400.785C383.46 401.532 386.12 402.56 388.453 403.822L393.657 400.131C397.6 402.14 400.797 404.639 403.013 407.442L397.203 410.246L396.363 410.643C397.6 412.558 398.253 414.614 398.253 416.763H406.56ZM383.04 420.804C384.043 419.566 384.58 418.211 384.58 416.763C384.58 411.39 376.973 407.022 367.617 407.022H367.267C365.898 407.037 364.576 407.147 363.3 407.349C356.043 408.447 350.7 412.255 350.7 416.763C350.7 418.211 351.237 419.566 352.217 420.804C354.877 424.192 360.78 426.551 367.617 426.551C374.477 426.551 380.403 424.192 383.04 420.804Z" fill="url(#paint49_linear_1_863)"/>
<path opacity="0.3" d="M42.8633 447.411L80.2667 425.99L44.38 406.064L7 427.485L42.8633 447.411Z" fill="#031614"/>
<path d="M42.8633 427.439L80.2667 406.017L44.38 386.068L7 407.489L42.8633 427.439Z" fill="url(#paint50_linear_1_863)"/>
<path d="M80.2666 406.017V415.548L42.8633 436.969V427.439L80.2666 406.017Z" fill="#DD4337"/>
<path d="M7 407.489V417.02L42.8633 436.969V427.439L7 407.489Z" fill="#DD4337"/>
<path d="M29.6801 407.489L45.4534 398.075L52.1034 410.713L29.6801 407.489Z" fill="white"/>
<path opacity="0.3" d="M220.15 549.681L264.297 524.383L221.923 500.836L177.777 526.135L220.15 549.681Z" fill="#031614"/>
<path d="M220.15 531.414L264.297 506.115L221.923 482.568L177.777 507.867L220.15 531.414Z" fill="#00CA81"/>
<path d="M264.297 506.115V517.351L220.15 542.673V531.414L264.297 506.115Z" fill="#007B44"/>
<path d="M177.777 507.867V519.103L220.15 542.673V531.414L177.777 507.867Z" fill="#007B44"/>
<path opacity="0.7" d="M251.393 507.166L218.423 488.759L215.973 490.113L248.943 508.521L251.393 507.166Z" fill="white"/>
<path opacity="0.7" d="M246.167 510.296L213.197 491.889L210.747 493.267L243.717 511.675L246.167 510.296Z" fill="white"/>
<path opacity="0.7" d="M240.94 513.45L207.97 495.042L205.52 496.397L238.49 514.805L240.94 513.45Z" fill="white"/>
<path opacity="0.7" d="M235.69 516.58L202.743 498.173L200.293 499.551L233.263 517.935L235.69 516.58Z" fill="white"/>
<path opacity="0.7" d="M230.463 519.711L197.517 501.303L195.067 502.681L228.013 521.089L230.463 519.711Z" fill="white"/>
<path opacity="0.7" d="M208.763 513.66L192.29 504.456L189.84 505.811L206.313 515.015L208.763 513.66Z" fill="white"/>
<path d="M285.04 145.296L178.103 84.0466C173.693 81.5003 160.487 86.6629 160.487 91.7554L168.187 337.736C168.187 342.665 170.823 347.22 175.093 349.673L277.9 417.954C282.333 420.501 291.69 410.105 291.69 405.013V156.766C291.69 152.024 289.147 147.656 285.04 145.296Z" fill="url(#paint51_linear_1_863)"/>
<path d="M275.053 152.258L168.14 90.9845C163.707 88.4616 158.2 91.6619 158.2 96.7544V344.674C158.2 349.603 160.837 354.158 165.13 356.611L271.787 417.721C276.22 420.267 281.703 417.067 281.703 411.974V163.728C281.703 158.985 279.16 154.594 275.053 152.258Z" fill="url(#paint52_linear_1_863)"/>
<path d="M275.053 152.258L168.14 90.9845C165.55 89.5128 162.587 89.98 160.557 91.6619C162.493 90.5874 164.943 90.4472 167.113 91.6853L274.05 152.959C278.157 155.295 280.7 159.686 280.7 164.428V412.675C280.7 414.777 279.743 416.553 278.343 417.744C280.303 416.646 281.703 414.544 281.703 411.974V163.728C281.703 158.985 279.16 154.594 275.053 152.258Z" fill="url(#paint53_linear_1_863)"/>
<path d="M164.43 106.706V330.985C164.43 333.695 165.877 336.194 168.21 337.526L274.89 398.636C274.983 398.706 275.03 398.706 275.077 398.706C275.077 398.706 275.497 398.682 275.497 398.285V395.716L170.31 335.447C167.953 334.092 166.507 331.592 166.507 328.906V107.173L165.037 106.332C164.92 106.285 164.873 106.285 164.85 106.285C164.85 106.285 164.43 106.309 164.43 106.706Z" fill="url(#paint54_linear_1_863)"/>
<path d="M166.507 107.173V328.906C166.507 331.593 167.953 334.092 170.31 335.447L275.497 395.716V173.679C275.497 171.179 274.143 168.843 271.973 167.605L166.507 107.173Z" fill="url(#paint55_linear_1_863)"/>
<path d="M232.89 137.634L203.887 121.025C203.35 120.722 203.047 120.161 203.047 119.577C203.047 118.269 204.423 117.475 205.543 118.105L234.57 134.738C235.083 135.041 235.41 135.579 235.41 136.186C235.41 137.471 234.01 138.288 232.89 137.634Z" fill="#00939B"/>
<path fill-rule="evenodd" clip-rule="evenodd" d="M209.533 364.46C212.847 364.11 216.79 367.707 218.33 372.472C219.893 377.261 218.47 381.419 215.157 381.746C211.843 382.097 207.9 378.499 206.36 373.734C204.797 368.945 206.22 364.81 209.533 364.46ZM207.83 373.57C208.997 377.168 211.96 379.878 214.457 379.621C216.953 379.364 218.027 376.233 216.86 372.636C215.693 369.039 212.73 366.329 210.233 366.586C207.737 366.843 206.663 369.973 207.83 373.57Z" fill="white"/>
<path d="M243.087 288.774L181.86 248.08C179.76 246.842 178.477 244.6 178.477 242.17L173.39 232.196C173.39 229.042 181.907 224.931 184.59 226.519L245.513 262.68C249.013 264.759 251.16 268.544 251.16 272.632V283.167C251.16 285.854 245.397 290.152 243.087 288.774Z" fill="url(#paint56_linear_1_863)"/>
<path d="M240.87 288.33L176.773 250.276C174.673 249.038 173.39 246.772 173.39 244.343V232.196C173.39 229.042 176.82 227.103 179.503 228.715L240.427 264.853C243.927 266.932 246.073 270.716 246.073 274.804V285.34C246.073 288.026 243.18 289.685 240.87 288.33Z" fill="url(#paint57_linear_1_863)"/>
<path d="M253.773 337.292L138.553 270.179C135.87 268.614 134.213 265.741 134.213 262.634V245.441C134.213 241.47 138.507 239.017 141.937 241.002L253.05 305.733C255.663 307.251 257.273 310.055 257.273 313.091V335.283C257.273 337.082 255.313 338.203 253.773 337.292Z" fill="url(#paint58_linear_1_863)"/>
<path d="M250.437 339.091L135.217 271.954C132.533 270.413 130.9 267.539 130.9 264.432V247.24C130.9 243.268 135.193 240.792 138.6 242.801L249.713 307.532C252.327 309.05 253.937 311.853 253.937 314.89V337.059C253.937 338.881 252 340.002 250.437 339.091Z" fill="url(#paint59_linear_1_863)"/>
<path d="M227.08 316.759C226.987 316.198 226.94 315.653 226.94 315.124C226.94 310.452 230.72 309.003 235.387 311.9C240.053 314.82 243.857 320.94 243.857 325.636C243.857 326.165 243.802 326.648 243.693 327.084L227.08 316.759Z" fill="url(#paint60_linear_1_863)"/>
<path d="M231.35 304.658C231.35 306.878 233.147 309.821 235.387 311.223C237.627 312.601 239.447 311.923 239.447 309.681C239.447 307.438 237.627 304.495 235.387 303.117C233.147 301.715 231.35 302.416 231.35 304.658Z" fill="url(#paint61_linear_1_863)"/>
<g opacity="0.4">
<path d="M192.36 283.237L168.957 269.595C168.56 269.361 168.28 268.918 168.257 268.45C168.21 267.423 169.26 266.792 170.147 267.306L193.55 280.948C193.97 281.182 194.227 281.625 194.25 282.093C194.297 283.12 193.247 283.751 192.36 283.237Z" fill="#FFF8F8"/>
<path d="M165.923 265.577C165.97 266.605 164.92 267.236 164.033 266.722L145.74 256.07C145.32 255.813 145.063 255.392 145.04 254.902C144.993 253.874 146.043 253.243 146.93 253.757L165.223 264.432C165.62 264.666 165.9 265.11 165.923 265.577Z" fill="#FFF8F8"/>
<path d="M198.473 283.821L215.04 293.469C215.437 293.703 215.717 294.146 215.717 294.614C215.763 295.641 214.713 296.296 213.827 295.782L197.283 286.111C196.887 285.877 196.607 285.456 196.583 284.966C196.537 283.938 197.61 283.307 198.473 283.821Z" fill="#FFF8F8"/>
<path d="M198.567 292.651L175.163 279.009C174.767 278.776 174.487 278.332 174.463 277.865C174.417 276.837 175.49 276.183 176.377 276.697L199.757 290.339C200.177 290.596 200.433 291.016 200.457 291.507C200.503 292.535 199.453 293.165 198.567 292.651Z" fill="#FFF8F8"/>
<path d="M172.13 274.991C172.177 276.019 171.127 276.65 170.24 276.136L145.997 262.12C145.6 261.886 145.32 261.442 145.297 260.952C145.25 259.924 146.323 259.293 147.21 259.807L171.43 273.823C171.85 274.08 172.107 274.501 172.13 274.991Z" fill="#FFF8F8"/>
<path d="M204.703 293.235L215.32 299.519C215.717 299.753 215.973 300.197 215.997 300.664C216.043 301.692 214.993 302.322 214.107 301.808L203.49 295.525C203.093 295.291 202.813 294.847 202.813 294.38C202.767 293.352 203.817 292.721 204.703 293.235Z" fill="#FFF8F8"/>
<path d="M192.36 294.31L168.957 280.668C168.56 280.434 168.28 279.99 168.257 279.523C168.21 278.495 169.26 277.841 170.147 278.355L193.55 291.997C193.97 292.231 194.227 292.675 194.25 293.142C194.297 294.17 193.247 294.824 192.36 294.31Z" fill="#FFF8F8"/>
<path d="M165.923 276.626C165.97 277.654 164.92 278.308 164.033 277.794L145.74 267.119C145.32 266.885 145.063 266.441 145.04 265.974C144.993 264.946 146.043 264.292 146.93 264.806L165.223 275.482C165.62 275.715 165.9 276.159 165.923 276.626Z" fill="#FFF8F8"/>
<path d="M198.473 294.871L215.04 304.518C215.437 304.775 215.717 305.196 215.717 305.686C215.763 306.714 214.713 307.345 213.827 306.831L197.283 297.183C196.887 296.95 196.607 296.506 196.583 296.039C196.537 295.011 197.61 294.357 198.473 294.871Z" fill="#FFF8F8"/>
<path d="M198.567 303.701L175.163 290.058C174.767 289.825 174.487 289.381 174.463 288.914C174.417 287.886 175.49 287.255 176.377 287.769L199.757 301.411C200.177 301.645 200.433 302.089 200.457 302.556C200.503 303.584 199.453 304.215 198.567 303.701Z" fill="#FFF8F8"/>
<path d="M172.13 286.041C172.177 287.068 171.127 287.699 170.24 287.185L145.997 273.169C145.6 272.936 145.32 272.492 145.297 272.025C145.25 270.997 146.323 270.343 147.21 270.857L171.43 284.896C171.85 285.129 172.107 285.573 172.13 286.041Z" fill="#FFF8F8"/>
<path d="M204.703 304.308L215.32 310.592C215.717 310.825 215.973 311.246 215.997 311.713C216.043 312.741 214.993 313.395 214.107 312.858L203.49 306.574C203.093 306.34 202.813 305.92 202.813 305.429C202.767 304.425 203.817 303.771 204.703 304.308Z" fill="#FFF8F8"/>
</g>
<path d="M253.773 376.023L138.553 308.91C135.87 307.345 134.213 304.472 134.213 301.365V284.172C134.213 280.224 138.507 277.748 141.937 279.733L253.05 344.464C255.663 345.982 257.273 348.785 257.273 351.822V374.014C257.273 375.813 255.313 376.934 253.773 376.023Z" fill="url(#paint62_linear_1_863)"/>
<path d="M250.437 377.822L135.217 310.685C132.533 309.144 130.9 306.27 130.9 303.163V285.97C130.9 281.999 135.193 279.523 138.6 281.532L249.713 346.263C252.327 347.781 253.937 350.584 253.937 353.621V375.79C253.937 377.612 252 378.733 250.437 377.822Z" fill="url(#paint63_linear_1_863)"/>
<path d="M227.08 355.49C226.987 354.929 226.94 354.384 226.94 353.855C226.94 349.183 230.72 347.734 235.387 350.631C240.053 353.551 243.857 359.671 243.857 364.367C243.857 364.896 243.802 365.379 243.693 365.815L227.08 355.49Z" fill="url(#paint64_linear_1_863)"/>
<path d="M231.35 343.389C231.35 345.608 233.147 348.552 235.387 349.953C237.627 351.332 239.447 350.654 239.447 348.412C239.447 346.169 237.627 343.226 235.387 341.848C233.147 340.446 231.35 341.147 231.35 343.389Z" fill="url(#paint65_linear_1_863)"/>
<g opacity="0.4">
<path d="M192.36 321.968L168.957 308.326C168.56 308.092 168.28 307.672 168.257 307.181C168.21 306.153 169.26 305.523 170.147 306.037L193.55 319.679C193.97 319.912 194.227 320.356 194.25 320.824C194.297 321.851 193.247 322.482 192.36 321.968Z" fill="#FFF8F8"/>
<path d="M165.923 304.308C165.97 305.336 164.92 305.967 164.033 305.453L145.74 294.8C145.32 294.544 145.063 294.123 145.04 293.632C144.993 292.605 146.043 291.974 146.93 292.488L165.223 303.163C165.62 303.397 165.9 303.841 165.923 304.308Z" fill="#FFF8F8"/>
<path d="M198.473 322.552L215.04 332.2C215.437 332.433 215.717 332.877 215.717 333.344C215.763 334.372 214.713 335.026 213.827 334.512L197.283 324.865C196.887 324.608 196.607 324.187 196.583 323.697C196.537 322.669 197.61 322.038 198.473 322.552Z" fill="#FFF8F8"/>
<path d="M198.567 331.382L175.163 317.74C174.767 317.506 174.487 317.063 174.463 316.595C174.417 315.568 175.49 314.913 176.377 315.451L199.757 329.07C200.177 329.327 200.433 329.747 200.457 330.238C200.503 331.265 199.453 331.896 198.567 331.382Z" fill="#FFF8F8"/>
<path d="M172.13 313.722C172.177 314.75 171.127 315.381 170.24 314.867L145.997 300.851C145.6 300.617 145.32 300.173 145.297 299.683C145.25 298.655 146.323 298.024 147.21 298.538L171.43 312.554C171.85 312.811 172.107 313.232 172.13 313.722Z" fill="#FFF8F8"/>
<path d="M204.703 331.966L215.32 338.25C215.717 338.507 215.973 338.928 215.997 339.395C216.043 340.423 214.993 341.053 214.107 340.539L203.49 334.256C203.093 334.022 202.813 333.578 202.813 333.111C202.767 332.083 203.817 331.452 204.703 331.966Z" fill="#FFF8F8"/>
<path d="M192.36 333.041L168.957 319.399C168.56 319.165 168.28 318.721 168.257 318.254C168.21 317.226 169.26 316.572 170.147 317.086L193.55 330.728C193.97 330.962 194.227 331.406 194.25 331.873C194.297 332.901 193.247 333.555 192.36 333.041Z" fill="#FFF8F8"/>
<path d="M165.923 315.357C165.97 316.385 164.92 317.039 164.033 316.525L145.74 305.85C145.32 305.616 145.063 305.172 145.04 304.705C144.993 303.677 146.043 303.023 146.93 303.56L165.223 314.213C165.62 314.446 165.9 314.89 165.923 315.357Z" fill="#FFF8F8"/>
<path d="M198.473 333.601L215.04 343.249C215.437 343.506 215.717 343.927 215.717 344.417C215.763 345.445 214.713 346.076 213.827 345.562L197.283 335.914C196.887 335.68 196.607 335.237 196.583 334.769C196.537 333.742 197.61 333.088 198.473 333.601Z" fill="#FFF8F8"/>
<path d="M198.567 342.432L175.163 328.789C174.767 328.556 174.487 328.112 174.463 327.645C174.417 326.617 175.49 325.986 176.377 326.5L199.757 340.142C200.177 340.376 200.433 340.82 200.457 341.287C200.503 342.315 199.453 342.945 198.567 342.432Z" fill="#FFF8F8"/>
<path d="M172.13 324.771C172.177 325.799 171.127 326.43 170.24 325.939L145.997 311.9C145.6 311.666 145.32 311.223 145.297 310.755C145.25 309.728 146.323 309.073 147.21 309.587L171.43 323.627C171.85 323.86 172.107 324.304 172.13 324.771Z" fill="#FFF8F8"/>
<path d="M204.703 343.039L215.32 349.323C215.717 349.556 215.973 349.977 215.997 350.444C216.043 351.472 214.993 352.126 214.107 351.589L203.49 345.305C203.093 345.071 202.813 344.651 202.813 344.184C202.767 343.156 203.817 342.502 204.703 343.039Z" fill="#FFF8F8"/>
</g>
<path d="M180.507 150.623C181.533 150.412 182.63 150.552 183.657 151.136L244.813 185.616C248.15 187.531 250.203 191.082 250.203 194.913V243.852C250.203 245.207 249.597 246.328 248.687 247.076C250.553 246.726 255.103 243.525 255.103 241.376V192.437C255.103 188.606 253.027 185.055 249.69 183.14L188.533 148.66C186.83 147.679 181.883 149.548 180.507 150.623Z" fill="url(#paint66_linear_1_863)"/>
<path d="M176.913 155.061V205.378C176.913 206.453 177.147 207.457 177.567 208.392C178.173 209.77 179.223 210.915 180.577 211.686L243.973 247.473C245.583 248.408 247.427 248.104 248.687 247.076C249.597 246.328 250.203 245.207 250.203 243.852V194.936C250.203 193.325 249.877 191.783 249.2 190.405L248.757 189.54C247.823 187.928 246.47 186.574 244.813 185.616L183.657 151.136C182.63 150.552 181.533 150.412 180.507 150.623C180.336 150.669 180.172 150.716 180.017 150.763C178.267 151.347 176.913 152.959 176.913 155.061Z" fill="url(#paint67_linear_1_863)"/>
<path d="M179.503 104.627V181.645C179.503 182.626 179.713 183.56 180.11 184.448C180.693 185.709 181.65 186.784 182.91 187.485L241.827 220.749C243.32 221.614 245.047 221.333 246.213 220.376C247.053 219.698 247.613 218.647 247.613 217.385V141.676C247.613 140.181 247.287 138.756 246.68 137.471L246.26 136.677C245.397 135.182 244.137 133.92 242.597 133.032L185.78 100.983C184.823 100.422 183.797 100.305 182.863 100.515C182.708 100.547 182.552 100.585 182.397 100.632C180.787 101.193 179.503 102.688 179.503 104.627Z" fill="#E8E8E8"/>
<path d="M227.453 147.749L189.467 126.842C188.697 126.445 188.09 125.464 188.09 124.716C188.09 123.969 188.697 123.688 189.467 124.109L227.453 145.016C228.223 145.413 228.83 146.394 228.83 147.142C228.83 147.889 228.223 148.17 227.453 147.749Z" fill="#C6B5B5"/>
<path d="M240.403 162.513L207.97 144.642C207.34 144.315 206.85 143.544 206.85 142.937V142.4C206.85 141.792 207.34 141.559 207.97 141.909L240.403 159.756C241.01 160.083 241.5 160.854 241.5 161.462V161.999C241.5 162.606 241.01 162.84 240.403 162.513Z" fill="#C6B5B5"/>
<path d="M240.403 170.128L207.97 152.281C207.34 151.931 206.85 151.16 206.85 150.552V150.015C206.85 149.408 207.34 149.198 207.97 149.525L240.403 167.372C241.01 167.699 241.5 168.493 241.5 169.1V169.638C241.5 170.245 241.01 170.455 240.403 170.128Z" fill="#C6B5B5"/>
<path d="M240.403 177.744L207.97 159.896C207.34 159.569 206.85 158.799 206.85 158.191V157.654C206.85 157.047 207.34 156.813 207.97 157.14L240.403 174.987C241.01 175.337 241.5 176.108 241.5 176.716V177.253C241.5 177.86 241.01 178.094 240.403 177.744Z" fill="#C6B5B5"/>
<path d="M240.147 185.219L189.467 157.35C188.697 156.93 188.09 155.972 188.09 155.201C188.09 154.454 188.697 154.173 189.467 154.594L240.147 182.486C240.893 182.883 241.5 183.84 241.5 184.611C241.5 185.359 240.893 185.639 240.147 185.219Z" fill="#C6B5B5"/>
<path d="M240.147 192.857L189.467 164.966C188.697 164.545 188.09 163.587 188.09 162.84C188.09 162.069 188.697 161.789 189.467 162.209L240.147 190.101C240.893 190.521 241.5 191.479 241.5 192.227C241.5 192.974 240.893 193.255 240.147 192.857Z" fill="#C6B5B5"/>
<path d="M240.147 200.473L189.467 172.581C188.697 172.184 188.09 171.226 188.09 170.455C188.09 169.708 188.697 169.427 189.467 169.848L240.147 197.716C240.893 198.137 241.5 199.095 241.5 199.842C241.5 200.613 240.893 200.893 240.147 200.473Z" fill="#C6B5B5"/>
<path d="M240.147 208.088L189.467 180.22C188.697 179.799 188.09 178.841 188.09 178.071C188.09 177.323 188.697 177.043 189.467 177.463L240.147 205.355C240.893 205.752 241.5 206.71 241.5 207.481C241.5 208.228 240.893 208.509 240.147 208.088Z" fill="#C6B5B5"/>
<path d="M192.453 150.973L189.21 133.079L190.937 134.037L192.477 143.031C192.85 145.25 193.177 147.446 193.41 149.128L193.457 149.151C193.667 147.656 194.063 145.951 194.507 144.128L196.21 136.934L197.937 137.891L199.477 146.908C199.85 149.034 200.177 151.136 200.387 152.935L200.41 152.959C200.69 151.323 201.04 149.735 201.437 147.936L203.117 140.741L204.82 141.676L201.203 155.785L199.477 154.851L197.843 145.553C197.447 143.288 197.19 141.559 197.027 139.854L196.98 139.83C196.747 141.302 196.467 142.727 196 144.549L194.18 151.931L192.453 150.973Z" fill="#C6B5B5"/>
<path d="M177.543 208.345L177.567 208.392C178.173 209.77 179.223 210.915 180.577 211.686L243.973 247.473C245.583 248.408 247.427 248.104 248.687 247.076C249.597 246.329 250.203 245.207 250.203 243.852V194.936C250.203 193.325 249.877 191.783 249.2 190.405L248.757 189.54L177.543 208.345Z" fill="url(#paint68_linear_1_863)"/>
<path d="M176.913 155.061V205.378C176.913 206.453 177.147 207.457 177.567 208.392L209.58 199.889L180.017 150.763C178.267 151.347 176.913 152.959 176.913 155.061Z" fill="url(#paint69_linear_1_863)"/>
<path d="M95.3634 477.172L94.9434 486.563C94.9434 486.563 105.863 486.703 108.197 484.39C110.553 482.054 111.86 479.601 109.037 479.041C106.213 478.504 105.117 478.317 105.117 478.317L95.3634 477.172Z" fill="url(#paint70_linear_1_863)"/>
<path d="M122.803 486.306C122.803 486.306 123.27 496.164 123.573 496.28C123.877 496.397 134.773 495.299 137.013 493.22C139.253 491.141 139.767 489.973 137.2 489.109C134.61 488.221 132.627 485.792 132.673 484.928C132.72 484.087 122.803 486.306 122.803 486.306Z" fill="url(#paint71_linear_1_863)"/>
<path d="M123.13 491.538C123.13 491.538 125.393 495.042 130.48 493.944C135.567 492.847 135.8 490.534 135.73 489.67C135.637 488.782 133.747 487.848 134.563 487.707C135.38 487.591 139.37 487.637 141.517 486.866C143.663 486.119 145.11 485.628 146.767 486.539C148.4 487.427 151.62 490.277 149.59 491.608C147.537 492.94 134.097 500.672 130.2 500.462C126.28 500.228 122.99 498.733 122.5 496.888C122.033 495.019 123.13 491.538 123.13 491.538Z" fill="#004C86"/>
<path d="M93.9633 481.564C93.9633 481.564 92.3067 489.086 94.29 490.09C96.2733 491.095 101.5 495.276 107.683 489.623C113.867 483.97 118.65 480.816 117.577 478.597C116.503 476.378 112.49 474.509 110.647 475.07C108.827 475.607 106.33 477.849 106.33 477.849C106.33 477.849 110.017 479.742 109.317 480.91C108.593 482.101 104.393 485.839 100.03 484.857C95.6667 483.876 93.9633 481.564 93.9633 481.564Z" fill="#004C86"/>
<path d="M131.343 487.567C124.647 488.712 121.357 487.123 121.357 487.123C121.357 487.123 112.723 460.586 115.5 441.735C118.253 422.907 117.437 402.023 115.827 398.729C114.637 396.276 113.33 393.613 113.33 393.613C113.33 393.613 113.96 420.898 110.273 429.985C107.287 437.343 107.38 446.173 107.077 458.157C106.773 470.141 107.87 478.106 107.87 478.106C107.87 478.106 107.123 479.321 104.697 480.302C103.903 480.629 102.923 480.933 101.733 481.19C96.9033 482.171 94.2433 477.242 94.2433 477.242C94.2433 477.242 85.89 444.725 90.1833 428.84C94.5 412.955 93.3333 405.994 92.9833 398.542C92.6333 390.296 84.8633 370.066 94.7333 358.877C104.557 347.711 136.99 366.773 136.99 366.773C136.99 366.773 139.93 415.011 137.877 423.561C135.823 432.111 132.627 440.824 133.023 455.003C133.42 469.183 135.473 484.39 135.473 484.39C135.473 484.39 138.04 486.423 131.343 487.567Z" fill="#004C86"/>
<path opacity="0.3" d="M110.273 429.985C107.287 437.343 107.38 446.173 107.077 458.157C106.773 470.141 107.87 478.106 107.87 478.106C107.87 478.106 107.123 479.321 104.697 480.302C100.263 467.735 104.043 437.273 104.323 435.708C104.65 434.026 97.3234 433.699 97.3234 433.699C97.3234 433.699 103.6 430.896 105.817 424.145C108.033 417.394 107.683 382.447 107.683 382.447C107.683 382.447 107.683 382.447 108.733 385.601C109.807 388.801 113.33 393.613 113.33 393.613C113.33 393.613 113.96 420.898 110.273 429.985Z" fill="#041F30"/>
<path d="M134.47 262.307C134.47 262.307 135.66 267.936 135.403 269.104C135.17 270.296 134.96 270.716 134.96 270.716C134.96 270.716 135.917 271.744 135.777 273.356C135.637 274.944 135.24 282.817 133.91 283.658C132.603 284.522 127.68 284.989 126.91 285.97C126.14 286.975 124.973 293.516 124.973 293.516L104.393 290.549L108.01 278.285L132.463 260.578L134.47 262.307Z" fill="url(#paint72_linear_1_863)"/>
<path d="M136.103 255.275C137.037 257.121 136.873 263.264 134.633 263.755C132.393 264.222 127.797 265.344 127.727 269.875C127.657 274.407 127.19 275.996 126.56 275.972C125.93 275.949 126.21 269.992 124.227 269.922C122.243 269.852 121.263 273.076 122.29 275.178C123.34 277.304 123.037 281.112 121.59 281.766C120.143 282.443 109.41 282.7 106.447 280.387C103.507 278.051 99.7267 262.891 105.817 256.724C111.93 250.557 123.783 252.542 126.233 252.542C128.707 252.566 135.263 253.664 136.103 255.275Z" fill="url(#paint73_linear_1_863)"/>
<path d="M175.607 288.26C175.607 288.26 174.93 283.097 175.933 278.682C176.96 274.267 177.777 269.829 177.917 269.268C178.033 268.731 180.367 269.128 180.297 271.254C180.227 273.356 178.943 280.457 180.67 279.5C182.373 278.565 181.487 275.528 182.817 275.692C184.147 275.832 186.223 280.037 184.753 283.985C183.283 287.956 180.133 294.871 180.133 294.871C180.133 294.871 180.577 290.362 175.607 288.26Z" fill="url(#paint74_linear_1_863)"/>
<path d="M83.2067 319.422C83.51 332.106 91.2334 331.663 92.0967 332.27C92.96 332.877 91.42 365.955 91.42 365.955C91.42 365.955 97.23 374.014 114.683 374.178C123.83 374.248 129.523 372.192 132.86 370.183C135.94 368.384 137.037 366.632 137.037 366.632L138.437 319.656C138.437 319.656 151.457 318.768 157.173 317.67C162.89 316.549 179.667 297.604 179.667 297.604C179.667 297.604 180.04 296.225 180.157 294.473V294.427C180.203 293.399 180.157 292.231 179.877 291.203C179.363 289.334 177.123 288.563 175.677 288.283C174.953 288.143 174.44 288.096 174.44 288.096C174.44 288.096 162.377 300.944 158.527 303C154.677 305.056 140.887 304.144 139.043 302.346C137.223 300.524 130.06 297.884 130.06 297.884L130.177 293.96L104.3 283.798C102.76 286.204 91.3967 283.401 88.3634 287.068C85.33 290.759 82.9034 306.737 83.2067 319.422Z" fill="url(#paint75_linear_1_863)"/>
<g opacity="0.2">
<path d="M92.0967 332.27C92.0967 332.27 90.4867 312.951 90.1367 306.644C89.7867 300.313 90.1367 298.234 90.1367 298.234C90.1367 298.234 88.5734 304.308 88.2234 308.84C87.8967 313.348 88.97 331.265 88.97 331.265C88.97 331.265 90.23 332.27 92.0967 332.27Z" fill="#130030"/>
</g>
<g opacity="0.2">
<path d="M127.26 310.148C127.26 310.148 128.543 316.946 130.807 320.683C132.673 323.744 132.86 359.204 132.86 370.183C135.94 368.384 137.037 366.632 137.037 366.632L138.437 319.656C138.437 319.656 136.57 319.422 133.233 317.086C129.92 314.727 127.26 310.148 127.26 310.148Z" fill="#130030"/>
</g>
<defs>
<linearGradient id="paint0_linear_1_863" x1="362.996" y1="310.709" x2="411.207" y2="310.709" gradientUnits="userSpaceOnUse">
<stop stop-color="#03446D"/>
<stop offset="1" stop-color="#5B8D94"/>
</linearGradient>
<linearGradient id="paint1_linear_1_863" x1="362.996" y1="308.278" x2="410.866" y2="308.278" gradientUnits="userSpaceOnUse">
<stop stop-color="#EFEFEF"/>
<stop offset="1" stop-color="#B5B5B5"/>
</linearGradient>
<linearGradient id="paint2_linear_1_863" x1="383.226" y1="286.584" x2="389.191" y2="286.584" gradientUnits="userSpaceOnUse">
<stop stop-color="#EFEFEF"/>
<stop offset="1" stop-color="#B5B5B5"/>
</linearGradient>
<linearGradient id="paint3_linear_1_863" x1="379.82" y1="276.488" x2="392.275" y2="276.488" gradientUnits="userSpaceOnUse">
<stop stop-color="#EFEFEF"/>
<stop offset="1" stop-color="#B5B5B5"/>
</linearGradient>
<linearGradient id="paint4_linear_1_863" x1="324.373" y1="236.759" x2="369.773" y2="236.759" gradientUnits="userSpaceOnUse">
<stop stop-color="#EFEFEF"/>
<stop offset="1" stop-color="#B5B5B5"/>
</linearGradient>
<linearGradient id="paint5_linear_1_863" x1="320.466" y1="220.936" x2="366.227" y2="220.936" gradientUnits="userSpaceOnUse">
<stop stop-color="#EFEFEF"/>
<stop offset="1" stop-color="#B5B5B5"/>
</linearGradient>
<linearGradient id="paint6_linear_1_863" x1="325.713" y1="223.985" x2="366.227" y2="223.985" gradientUnits="userSpaceOnUse">
<stop stop-color="#535B60"/>
<stop offset="1" stop-color="#8CA8AB"/>
</linearGradient>
<linearGradient id="paint7_linear_1_863" x1="316.182" y1="246.788" x2="326.446" y2="246.788" gradientUnits="userSpaceOnUse">
<stop stop-color="#EFEFEF"/>
<stop offset="1" stop-color="#B5B5B5"/>
</linearGradient>
<linearGradient id="paint8_linear_1_863" x1="326.803" y1="187.954" x2="422.62" y2="187.954" gradientUnits="userSpaceOnUse">
<stop stop-color="#EFEFEF"/>
<stop offset="1" stop-color="#B5B5B5"/>
</linearGradient>
<linearGradient id="paint9_linear_1_863" x1="450.73" y1="221.587" x2="428.744" y2="279.337" gradientUnits="userSpaceOnUse">
<stop stop-color="#EFEFEF"/>
<stop offset="1" stop-color="#B5B5B5"/>
</linearGradient>
<linearGradient id="paint10_linear_1_863" x1="299.249" y1="273.441" x2="348.696" y2="273.441" gradientUnits="userSpaceOnUse">
<stop stop-color="#EDA651"/>
<stop offset="1" stop-color="#FFD899"/>
</linearGradient>
<linearGradient id="paint11_linear_1_863" x1="343.03" y1="270.752" x2="372.474" y2="281.707" gradientUnits="userSpaceOnUse">
<stop stop-color="#EDA651"/>
<stop offset="1" stop-color="#FFD899"/>
</linearGradient>
<linearGradient id="paint12_linear_1_863" x1="346.909" y1="172.493" x2="403.376" y2="172.493" gradientUnits="userSpaceOnUse">
<stop stop-color="#004B8E"/>
<stop offset="1" stop-color="#0894FD"/>
</linearGradient>
<linearGradient id="paint13_linear_1_863" x1="383.022" y1="181.113" x2="370.891" y2="180.773" gradientUnits="userSpaceOnUse">
<stop stop-color="#EDA651"/>
<stop offset="1" stop-color="#FFD899"/>
</linearGradient>
<linearGradient id="paint14_linear_1_863" x1="381.741" y1="145.508" x2="398.307" y2="145.508" gradientUnits="userSpaceOnUse">
<stop stop-color="#484A4C"/>
<stop offset="1" stop-color="#37383A"/>
</linearGradient>
<linearGradient id="paint15_linear_1_863" x1="382.77" y1="176.488" x2="357.407" y2="176.488" gradientUnits="userSpaceOnUse">
<stop stop-color="#EDA651"/>
<stop offset="1" stop-color="#FFD899"/>
</linearGradient>
<linearGradient id="paint16_linear_1_863" x1="360.716" y1="142.805" x2="391.081" y2="142.805" gradientUnits="userSpaceOnUse">
<stop stop-color="#484A4C"/>
<stop offset="1" stop-color="#37383A"/>
</linearGradient>
<linearGradient id="paint17_linear_1_863" x1="361.311" y1="231.819" x2="384.949" y2="231.819" gradientUnits="userSpaceOnUse">
<stop stop-color="#EFEFEF"/>
<stop offset="1" stop-color="#B5B5B5"/>
</linearGradient>
<linearGradient id="paint18_linear_1_863" x1="361.296" y1="230.255" x2="384.724" y2="230.255" gradientUnits="userSpaceOnUse">
<stop stop-color="#EFEFEF"/>
<stop offset="1" stop-color="#B5B5B5"/>
</linearGradient>
<linearGradient id="paint19_linear_1_863" x1="322.523" y1="204.548" x2="361.623" y2="204.548" gradientUnits="userSpaceOnUse">
<stop stop-color="#EFEFEF"/>
<stop offset="1" stop-color="#B5B5B5"/>
</linearGradient>
<linearGradient id="paint20_linear_1_863" x1="395.842" y1="251.927" x2="337.565" y2="294.262" gradientUnits="userSpaceOnUse">
<stop stop-color="#EFEFEF"/>
<stop offset="1" stop-color="#B5B5B5"/>
</linearGradient>
<linearGradient id="paint21_linear_1_863" x1="363.812" y1="215.879" x2="402.831" y2="215.879" gradientUnits="userSpaceOnUse">
<stop stop-color="#EDA651"/>
<stop offset="1" stop-color="#FFD899"/>
</linearGradient>
<linearGradient id="paint22_linear_1_863" x1="344.503" y1="220.378" x2="333" y2="210.756" gradientUnits="userSpaceOnUse">
<stop stop-color="#EDA651"/>
<stop offset="1" stop-color="#FFD899"/>
</linearGradient>
<linearGradient id="paint23_linear_1_863" x1="372.579" y1="243.562" x2="418.34" y2="243.562" gradientUnits="userSpaceOnUse">
<stop stop-color="#EFEFEF"/>
<stop offset="1" stop-color="#B5B5B5"/>
</linearGradient>
<linearGradient id="paint24_linear_1_863" x1="377.827" y1="246.611" x2="418.341" y2="246.611" gradientUnits="userSpaceOnUse">
<stop stop-color="#535B60"/>
<stop offset="1" stop-color="#8CA8AB"/>
</linearGradient>
<linearGradient id="paint25_linear_1_863" x1="368.296" y1="269.414" x2="378.56" y2="269.414" gradientUnits="userSpaceOnUse">
<stop stop-color="#EFEFEF"/>
<stop offset="1" stop-color="#B5B5B5"/>
</linearGradient>
<linearGradient id="paint26_linear_1_863" x1="-1985.55" y1="-259.076" x2="-1736.75" y2="-176.104" gradientUnits="userSpaceOnUse">
<stop stop-color="#D1D8FF"/>
<stop offset="0.462" stop-color="#F2F4FF"/>
<stop offset="0.732" stop-color="#A6BBC1"/>
<stop offset="1" stop-color="#8CA8AB"/>
</linearGradient>
<linearGradient id="paint27_linear_1_863" x1="93.6583" y1="319.873" x2="321.901" y2="319.873" gradientUnits="userSpaceOnUse">
<stop stop-color="#EFEFEF"/>
<stop offset="1" stop-color="#B5B5B5"/>
</linearGradient>
<linearGradient id="paint28_linear_1_863" x1="337.904" y1="489.227" x2="254.285" y2="489.708" gradientUnits="userSpaceOnUse">
<stop stop-color="#007B44"/>
<stop offset="1" stop-color="#00B064"/>
</linearGradient>
<linearGradient id="paint29_linear_1_863" x1="267.774" y1="439.439" x2="333.188" y2="439.439" gradientUnits="userSpaceOnUse">
<stop stop-color="#00C780"/>
<stop offset="1" stop-color="#00B064"/>
</linearGradient>
<linearGradient id="paint30_linear_1_863" x1="304.049" y1="39.5918" x2="279.631" y2="110.544" gradientUnits="userSpaceOnUse">
<stop stop-color="#FFBB00"/>
<stop offset="1" stop-color="#FF6800"/>
</linearGradient>
<linearGradient id="paint31_linear_1_863" x1="174.074" y1="76.4319" x2="211.32" y2="1.52342" gradientUnits="userSpaceOnUse">
<stop stop-color="#FFBB00"/>
<stop offset="1" stop-color="#FF6800"/>
</linearGradient>
<linearGradient id="paint32_linear_1_863" x1="270.355" y1="80.6715" x2="265.002" y2="96.2255" gradientUnits="userSpaceOnUse">
<stop stop-color="#FFBB00"/>
<stop offset="1" stop-color="#FF6800"/>
</linearGradient>
<linearGradient id="paint33_linear_1_863" x1="224.455" y1="60.9288" x2="240.165" y2="29.3323" gradientUnits="userSpaceOnUse">
<stop stop-color="#D1D8FF"/>
<stop offset="1" stop-color="white"/>
</linearGradient>
<linearGradient id="paint34_linear_1_863" x1="224.455" y1="68.2234" x2="240.165" y2="36.627" gradientUnits="userSpaceOnUse">
<stop stop-color="#D1D8FF"/>
<stop offset="1" stop-color="white"/>
</linearGradient>
<linearGradient id="paint35_linear_1_863" x1="224.455" y1="75.5183" x2="240.165" y2="43.9218" gradientUnits="userSpaceOnUse">
<stop stop-color="#D1D8FF"/>
<stop offset="1" stop-color="white"/>
</linearGradient>
<linearGradient id="paint36_linear_1_863" x1="223.811" y1="82.3181" x2="233.27" y2="63.2942" gradientUnits="userSpaceOnUse">
<stop stop-color="#D1D8FF"/>
<stop offset="1" stop-color="white"/>
</linearGradient>
<linearGradient id="paint37_linear_1_863" x1="140.169" y1="134.702" x2="115.752" y2="205.653" gradientUnits="userSpaceOnUse">
<stop stop-color="#D1D8FF"/>
<stop offset="0.462" stop-color="white"/>
<stop offset="1" stop-color="#6E9292"/>
</linearGradient>
<linearGradient id="paint38_linear_1_863" x1="10.1948" y1="171.542" x2="47.4403" y2="96.6332" gradientUnits="userSpaceOnUse">
<stop stop-color="#004B8E"/>
<stop offset="1" stop-color="#0894FD"/>
</linearGradient>
<linearGradient id="paint39_linear_1_863" x1="106.475" y1="175.782" x2="101.122" y2="191.336" gradientUnits="userSpaceOnUse">
<stop stop-color="#D1D8FF"/>
<stop offset="0.462" stop-color="white"/>
<stop offset="1" stop-color="#6E9292"/>
</linearGradient>
<linearGradient id="paint40_linear_1_863" x1="60.5752" y1="156.039" x2="76.2852" y2="124.442" gradientUnits="userSpaceOnUse">
<stop stop-color="#D1D8FF"/>
<stop offset="1" stop-color="white"/>
</linearGradient>
<linearGradient id="paint41_linear_1_863" x1="60.5752" y1="163.333" x2="76.2852" y2="131.737" gradientUnits="userSpaceOnUse">
<stop stop-color="#D1D8FF"/>
<stop offset="1" stop-color="white"/>
</linearGradient>
<linearGradient id="paint42_linear_1_863" x1="60.5752" y1="170.628" x2="76.2854" y2="139.032" gradientUnits="userSpaceOnUse">
<stop stop-color="#D1D8FF"/>
<stop offset="1" stop-color="white"/>
</linearGradient>
<linearGradient id="paint43_linear_1_863" x1="59.9312" y1="177.428" x2="69.3901" y2="158.404" gradientUnits="userSpaceOnUse">
<stop stop-color="#D1D8FF"/>
<stop offset="1" stop-color="white"/>
</linearGradient>
<linearGradient id="paint44_linear_1_863" x1="328.688" y1="402.375" x2="403.936" y2="402.375" gradientUnits="userSpaceOnUse">
<stop stop-color="#004B8E"/>
<stop offset="1" stop-color="#0894FD"/>
</linearGradient>
<linearGradient id="paint45_linear_1_863" x1="333.99" y1="428.081" x2="342.626" y2="428.081" gradientUnits="userSpaceOnUse">
<stop stop-color="#FF5B47"/>
<stop offset="1" stop-color="#FFA595"/>
</linearGradient>
<linearGradient id="paint46_linear_1_863" x1="380.876" y1="433.783" x2="392.985" y2="433.783" gradientUnits="userSpaceOnUse">
<stop stop-color="#FF5B47"/>
<stop offset="1" stop-color="#FFA595"/>
</linearGradient>
<linearGradient id="paint47_linear_1_863" x1="402.64" y1="416.769" x2="406.553" y2="416.769" gradientUnits="userSpaceOnUse">
<stop stop-color="#FF5B47"/>
<stop offset="1" stop-color="#FFA595"/>
</linearGradient>
<linearGradient id="paint48_linear_1_863" x1="340.334" y1="400.775" x2="345.66" y2="400.775" gradientUnits="userSpaceOnUse">
<stop stop-color="#FF5B47"/>
<stop offset="1" stop-color="#FFA595"/>
</linearGradient>
<linearGradient id="paint49_linear_1_863" x1="328.688" y1="394.331" x2="406.553" y2="394.331" gradientUnits="userSpaceOnUse">
<stop stop-color="#317BFF"/>
<stop offset="1" stop-color="#6EBEFF"/>
</linearGradient>
<linearGradient id="paint50_linear_1_863" x1="6.99417" y1="386.07" x2="80.2557" y2="386.07" gradientUnits="userSpaceOnUse">
<stop stop-color="#FF624D"/>
<stop offset="1" stop-color="#FF9A89"/>
</linearGradient>
<linearGradient id="paint51_linear_1_863" x1="640.734" y1="35.8677" x2="668.263" y2="144.609" gradientUnits="userSpaceOnUse">
<stop stop-color="#484A4C"/>
<stop offset="0.184" stop-color="#929395"/>
<stop offset="0.288" stop-color="white"/>
<stop offset="0.458" stop-color="#7F8081"/>
<stop offset="1" stop-color="#37383A"/>
</linearGradient>
<linearGradient id="paint52_linear_1_863" x1="618.384" y1="556.41" x2="753.505" y2="60.8596" gradientUnits="userSpaceOnUse">
<stop stop-color="#484A4C"/>
<stop offset="1" stop-color="#37383A"/>
</linearGradient>
<linearGradient id="paint53_linear_1_863" x1="-183.116" y1="556.761" x2="-317.675" y2="63.2738" gradientUnits="userSpaceOnUse">
<stop stop-color="white"/>
<stop offset="1" stop-color="#37383A"/>
</linearGradient>
<linearGradient id="paint54_linear_1_863" x1="-151.257" y1="33.4773" x2="-196.582" y2="289.142" gradientUnits="userSpaceOnUse">
<stop stop-color="#2792A0"/>
<stop offset="0.732" stop-color="#EBFDFF"/>
<stop offset="1" stop-color="#00BADC"/>
</linearGradient>
<linearGradient id="paint55_linear_1_863" x1="571.982" y1="506.271" x2="652.752" y2="210.051" gradientUnits="userSpaceOnUse">
<stop stop-color="#004B8E"/>
<stop offset="1" stop-color="#0894FD"/>
</linearGradient>
<linearGradient id="paint56_linear_1_863" x1="215.849" y1="209.781" x2="263.744" y2="245.708" gradientUnits="userSpaceOnUse">
<stop stop-color="#00B76D"/>
<stop offset="1" stop-color="#009553"/>
</linearGradient>
<linearGradient id="paint57_linear_1_863" x1="261.771" y1="282.082" x2="223.277" y2="204.663" gradientUnits="userSpaceOnUse">
<stop stop-color="#00B76D"/>
<stop offset="1" stop-color="#009553"/>
</linearGradient>
<linearGradient id="paint58_linear_1_863" x1="297.432" y1="273.332" x2="140.935" y2="191.838" gradientUnits="userSpaceOnUse">
<stop stop-color="#FFBB00"/>
<stop offset="1" stop-color="#FF6800"/>
</linearGradient>
<linearGradient id="paint59_linear_1_863" x1="76.9538" y1="288.405" x2="212.08" y2="377.623" gradientUnits="userSpaceOnUse">
<stop stop-color="#FFBB00"/>
<stop offset="1" stop-color="#FF6800"/>
</linearGradient>
<linearGradient id="paint60_linear_1_863" x1="249.872" y1="277.507" x2="217.899" y2="323.791" gradientUnits="userSpaceOnUse">
<stop stop-color="#D1D8FF"/>
<stop offset="0.462" stop-color="#F2F4FF"/>
<stop offset="0.732" stop-color="#A6BBC1"/>
<stop offset="0.857" stop-color="#F1F3FF"/>
<stop offset="1" stop-color="#8CA8AB"/>
</linearGradient>
<linearGradient id="paint61_linear_1_863" x1="237.322" y1="291.454" x2="215.031" y2="323.723" gradientUnits="userSpaceOnUse">
<stop stop-color="#D1D8FF"/>
<stop offset="0.462" stop-color="#F2F4FF"/>
<stop offset="0.732" stop-color="#A6BBC1"/>
<stop offset="0.857" stop-color="#F1F3FF"/>
<stop offset="1" stop-color="#8CA8AB"/>
</linearGradient>
<linearGradient id="paint62_linear_1_863" x1="297.432" y1="312.064" x2="140.935" y2="230.569" gradientUnits="userSpaceOnUse">
<stop stop-color="#FFBB00"/>
<stop offset="1" stop-color="#FF6800"/>
</linearGradient>
<linearGradient id="paint63_linear_1_863" x1="76.9538" y1="327.136" x2="212.08" y2="416.354" gradientUnits="userSpaceOnUse">
<stop stop-color="#FFBB00"/>
<stop offset="1" stop-color="#FF6800"/>
</linearGradient>
<linearGradient id="paint64_linear_1_863" x1="249.872" y1="316.238" x2="217.899" y2="362.523" gradientUnits="userSpaceOnUse">
<stop stop-color="#D1D8FF"/>
<stop offset="0.462" stop-color="#F2F4FF"/>
<stop offset="0.732" stop-color="#A6BBC1"/>
<stop offset="0.857" stop-color="#F1F3FF"/>
<stop offset="1" stop-color="#8CA8AB"/>
</linearGradient>
<linearGradient id="paint65_linear_1_863" x1="237.322" y1="330.186" x2="215.031" y2="362.455" gradientUnits="userSpaceOnUse">
<stop stop-color="#D1D8FF"/>
<stop offset="0.462" stop-color="#F2F4FF"/>
<stop offset="0.732" stop-color="#A6BBC1"/>
<stop offset="0.857" stop-color="#F1F3FF"/>
<stop offset="1" stop-color="#8CA8AB"/>
</linearGradient>
<linearGradient id="paint66_linear_1_863" x1="255.093" y1="148.377" x2="180.513" y2="148.377" gradientUnits="userSpaceOnUse">
<stop stop-color="#F49A0B"/>
<stop offset="1" stop-color="#E8A92D"/>
</linearGradient>
<linearGradient id="paint67_linear_1_863" x1="146.321" y1="147.21" x2="148.122" y2="218.146" gradientUnits="userSpaceOnUse">
<stop stop-color="#FFC931"/>
<stop offset="1" stop-color="#E8A92D"/>
</linearGradient>
<linearGradient id="paint68_linear_1_863" x1="188.844" y1="186.764" x2="189.938" y2="229.84" gradientUnits="userSpaceOnUse">
<stop stop-color="#FFC931"/>
<stop offset="1" stop-color="#E8A92D"/>
</linearGradient>
<linearGradient id="paint69_linear_1_863" x1="163.031" y1="122.253" x2="143.096" y2="149.909" gradientUnits="userSpaceOnUse">
<stop stop-color="#FFC931"/>
<stop offset="1" stop-color="#E8A92D"/>
</linearGradient>
<linearGradient id="paint70_linear_1_863" x1="95.3622" y1="477.173" x2="110.753" y2="477.866" gradientUnits="userSpaceOnUse">
<stop stop-color="#EDA651"/>
<stop offset="1" stop-color="#FFD899"/>
</linearGradient>
<linearGradient id="paint71_linear_1_863" x1="122.896" y1="484.327" x2="139.165" y2="485.06" gradientUnits="userSpaceOnUse">
<stop stop-color="#EDA651"/>
<stop offset="1" stop-color="#FFD899"/>
</linearGradient>
<linearGradient id="paint72_linear_1_863" x1="104.393" y1="260.576" x2="135.8" y2="260.576" gradientUnits="userSpaceOnUse">
<stop stop-color="#EDA651"/>
<stop offset="1" stop-color="#FFD899"/>
</linearGradient>
<linearGradient id="paint73_linear_1_863" x1="102.569" y1="252.243" x2="136.63" y2="252.243" gradientUnits="userSpaceOnUse">
<stop stop-color="#484A4C"/>
<stop offset="1" stop-color="#37383A"/>
</linearGradient>
<linearGradient id="paint74_linear_1_863" x1="185.262" y1="269.055" x2="175.385" y2="269.055" gradientUnits="userSpaceOnUse">
<stop stop-color="#EDA651"/>
<stop offset="1" stop-color="#FFD899"/>
</linearGradient>
<linearGradient id="paint75_linear_1_863" x1="176.725" y1="374.003" x2="91.2821" y2="379.087" gradientUnits="userSpaceOnUse">
<stop stop-color="#00B76D"/>
<stop offset="1" stop-color="#009553"/>
</linearGradient>
</defs>
</svg>
